<?xml version="1.0" encoding="utf-8" standalone="no"?>
<!DOCTYPE svg PUBLIC "-//W3C//DTD SVG 1.1//EN"
  "http://www.w3.org/Graphics/SVG/1.1/DTD/svg11.dtd">
<!-- Created with matplotlib (https://matplotlib.org/) -->
<svg height="345.6pt" version="1.1" viewBox="0 0 460.8 345.6" width="460.8pt" xmlns="http://www.w3.org/2000/svg" xmlns:xlink="http://www.w3.org/1999/xlink">
 <defs>
  <style type="text/css">
*{stroke-linecap:butt;stroke-linejoin:round;}
  </style>
 </defs>
 <g id="figure_1">
  <g id="patch_1">
   <path d="M 0 345.6 
L 460.8 345.6 
L 460.8 0 
L 0 0 
z
" style="fill:#ffffff;"/>
  </g>
  <g id="axes_1">
   <g id="patch_2">
    <path d="M 235.766502 53.568 
C 212.657526 53.568 190.03317 60.243435 170.625584 72.788169 
C 151.217998 85.332904 135.841177 103.220785 126.352048 124.291646 
L 235.766502 173.565751 
L 235.766502 53.568 
z
" style="fill:#1e90ff;"/>
   </g>
   <g id="patch_3">
    <path d="M 126.352048 124.291646 
C 117.398609 144.172994 114.031099 166.123721 116.612966 187.774726 
C 119.194833 209.425732 127.629726 229.96903 141.007283 247.187423 
L 235.766502 173.565751 
L 126.352048 124.291646 
z
" style="fill:#7cfc00;"/>
   </g>
   <g id="patch_4">
    <path d="M 141.007283 247.187423 
C 156.114431 266.63199 176.84665 280.963275 200.374829 288.225638 
C 223.903007 295.488 249.105931 295.335357 272.544417 287.788539 
L 235.766502 173.565751 
L 141.007283 247.187423 
z
" style="fill:#ffff00;"/>
   </g>
   <g id="patch_5">
    <path d="M 272.544417 287.788539 
C 299.125948 279.22971 321.903783 261.654686 336.92509 238.113411 
C 351.946397 214.572135 358.288901 186.509992 354.851932 158.796844 
L 235.766502 173.565751 
L 272.544417 287.788539 
z
" style="fill:#ff4500;"/>
   </g>
   <g id="patch_6">
    <path d="M 354.851932 158.796844 
C 351.250763 129.759708 337.150671 103.019069 315.224745 83.644408 
C 293.298819 64.269747 265.026094 53.568 235.766502 53.568 
L 235.766502 173.565751 
L 354.851932 158.796844 
z
" style="fill:#ee82ee;"/>
   </g>
   <g id="matplotlib.axis_1">
    <g id="text_1">
     <!-- จำนวนอุบัติเหตุ -->
     <defs>
      <path d="M 4.90625 22.09375 
Q 4.71875 22.484375 4.71875 22.796875 
Q 4.71875 24.3125 7.015625 26.0625 
Q 9.328125 27.8125 11.40625 27.8125 
Q 13.921875 27.8125 15.109375 24.78125 
Q 16.3125 21.75 17.21875 17.21875 
Q 17.5 15.875 18.015625 11.90625 
Q 18.53125 7.953125 19.3125 6.078125 
Q 20.09375 4.21875 21.90625 4.203125 
Q 24.6875 4.203125 26.640625 8.84375 
Q 28.59375 13.5 28.8125 20 
Q 28.8125 25.25 28.375 28.296875 
Q 27.9375 31.34375 25.96875 33.5 
Q 24 35.671875 19.796875 36.015625 
Q 15.15625 36.015625 12.359375 34.828125 
Q 9.578125 33.640625 7.453125 31.96875 
Q 5.328125 30.296875 4.59375 30.296875 
Q 3.6875 30.296875 3.203125 31.171875 
Q 2.71875 32.0625 2.71875 33.203125 
Q 2.71875 34.34375 3.203125 35.203125 
Q 4.671875 37.546875 8.796875 38.96875 
Q 12.921875 40.40625 17.796875 40.40625 
Q 19.40625 40.40625 20.1875 40.3125 
Q 26.3125 39.765625 29.609375 37.265625 
Q 32.90625 34.765625 33.96875 31.375 
Q 35.03125 27.984375 35.203125 23.390625 
Q 35.203125 17.09375 33.609375 11.640625 
Q 32.03125 6.203125 28.953125 2.90625 
Q 25.875 -0.390625 21.609375 -0.390625 
Q 13.75 -0.25 12.40625 8.59375 
Q 11.5 15.28125 11.109375 17.46875 
Q 10.71875 19.671875 9.40625 20.609375 
Q 8.71875 21.0625 7.015625 21.265625 
Q 5.328125 21.484375 4.90625 22.09375 
z
" id="JasmineUPC-3592"/>
      <path d="M -9.109375 48.1875 
Q -12.765625 48.1875 -14.828125 49.96875 
Q -16.890625 51.765625 -16.890625 54.203125 
Q -16.890625 56.5625 -14.90625 58.328125 
Q -12.921875 60.109375 -9.40625 60.109375 
Q -5.609375 60.109375 -3.5 58.328125 
Q -1.390625 56.546875 -1.390625 54.109375 
Q -1.390625 51.734375 -3.4375 49.953125 
Q -5.5 48.1875 -9.109375 48.1875 
z
M 19.1875 35.5 
Q 17.0625 36.5 14.703125 36.5 
Q 11.203125 36.5 9.109375 34.90625 
Q 7.625 33.765625 7.125 32.15625 
Q 6.625 30.5625 6.109375 30.109375 
Q 5.71875 29.71875 4.90625 29.71875 
Q 3.859375 29.8125 2.96875 30.5625 
Q 2.09375 31.328125 2.09375 32.59375 
Q 2.09375 35.453125 5.203125 37.59375 
Q 8.890625 40.3125 14.5 40.3125 
Q 17.4375 40.3125 20.0625 39.625 
Q 22.6875 38.9375 24.203125 37.890625 
Q 26.5625 36.296875 27.625 34.703125 
Q 28.6875 33.109375 28.9375 31.390625 
Q 29.203125 29.6875 29.203125 26.484375 
L 29.203125 7.203125 
Q 29.203125 5.59375 29.5625 4.953125 
Q 29.9375 4.328125 30.65625 3.546875 
Q 31.375 2.78125 31.390625 2.09375 
Q 31.390625 0.65625 30.3125 0.328125 
Q 29.25 0 26 0 
L 23.8125 0 
Q 22.09375 0 21.34375 0.390625 
Q 20.609375 0.78125 20.609375 2.09375 
Q 20.625 2.8125 21.359375 3.53125 
Q 22.09375 4.265625 22.4375 4.890625 
Q 22.796875 5.515625 22.796875 7.203125 
L 22.796875 26.484375 
Q 22.796875 30.21875 22.203125 32.21875 
Q 21.609375 34.234375 19.1875 35.5 
z
M -9.203125 57.109375 
Q -10.859375 57.109375 -11.828125 56.203125 
Q -12.796875 55.296875 -12.796875 54.109375 
Q -12.796875 52.984375 -11.84375 52.140625 
Q -10.890625 51.296875 -9.203125 51.296875 
Q -7.421875 51.296875 -6.453125 52.140625 
Q -5.5 53 -5.5 54.203125 
Q -5.5 55.34375 -6.453125 56.21875 
Q -7.40625 57.109375 -9.203125 57.109375 
z
" id="JasmineUPC-3635"/>
      <path d="M 6.8125 14.59375 
L 7.59375 32 
Q 7.59375 33.015625 7.046875 33.546875 
Q 6.515625 34.078125 5.421875 34.625 
Q 4.34375 35.1875 3.921875 35.5625 
Q 3.5 35.9375 3.5 36.6875 
Q 3.65625 38.0625 5.921875 39.1875 
Q 8.203125 40.3125 10.40625 40.3125 
Q 11.5 40.3125 11.890625 40.09375 
Q 13.328125 39.484375 13.65625 37.640625 
Q 13.984375 35.8125 13.984375 32.296875 
L 13.3125 11.59375 
Q 13.3125 4.203125 22 4.203125 
Q 26.984375 4.46875 30.046875 8.078125 
Q 33.109375 11.6875 33.109375 15.984375 
L 33.109375 32.78125 
Q 33.109375 34.515625 32.71875 35.15625 
Q 32.34375 35.796875 31.640625 36.484375 
Q 30.9375 37.1875 30.90625 37.890625 
Q 30.90625 39.234375 31.65625 39.609375 
Q 32.40625 39.984375 34.109375 39.984375 
L 36.3125 39.984375 
Q 39.546875 39.984375 40.625 39.671875 
Q 41.703125 39.375 41.703125 37.890625 
Q 41.671875 37.25 40.953125 36.453125 
Q 40.234375 35.671875 39.859375 35.03125 
Q 39.5 34.40625 39.5 32.78125 
L 39.5 16.890625 
Q 39.5 14.53125 38.40625 12.5 
Q 37.421875 10.765625 36.3125 10.015625 
Q 36.671875 10.015625 37.53125 9.546875 
Q 38.40625 9.078125 38.796875 8.59375 
Q 40.3125 7.078125 40.3125 4.8125 
Q 40.3125 3.203125 39.40625 1.8125 
Q 38.109375 -0.296875 35.109375 -0.296875 
Q 33.625 -0.296875 32.40625 0.296875 
Q 30.9375 1.046875 30.46875 2.0625 
Q 30 3.078125 30 3.59375 
Q 29.8125 3.4375 28.40625 2.4375 
Q 27 1.4375 24.453125 0.609375 
Q 21.921875 -0.203125 18.5 -0.203125 
Q 12.984375 0.515625 9.890625 3.765625 
Q 6.8125 7.03125 6.8125 14.59375 
z
" id="JasmineUPC-3609"/>
      <path d="M 9.296875 11.109375 
Q 10.203125 10.59375 10.296875 8.6875 
Q 10.40625 6.78125 11.015625 6 
Q 12.875 3.484375 17.5 3.484375 
Q 21.390625 3.484375 24.203125 5.390625 
Q 26.90625 7.25 28.359375 11.5625 
Q 29.8125 15.890625 29.8125 21 
Q 29.8125 28 27.203125 32 
Q 25.765625 34.25 23.140625 35.375 
Q 20.515625 36.5 17.5 36.5 
Q 13.890625 36.5 11.0625 35.0625 
Q 8.25 33.625 7.5 31.203125 
Q 7.203125 30 6.109375 30 
Q 5 30 3.953125 31 
Q 2.90625 32 2.90625 33.296875 
Q 2.90625 34.015625 3.109375 34.296875 
Q 4.390625 37.25 8.3125 38.71875 
Q 12.25 40.203125 17.3125 40.203125 
Q 23.09375 40.203125 27.125 38.4375 
Q 31.171875 36.671875 33.4375 32.65625 
Q 35.71875 28.640625 35.890625 22.1875 
Q 35.890625 15.671875 34.34375 10.875 
Q 32.8125 6.078125 28.59375 2.90625 
Q 24.125 -0.390625 17.09375 -0.390625 
Q 13.703125 -0.390625 11.015625 0.484375 
Q 4.296875 2.515625 4.296875 7.90625 
Q 4.6875 9.546875 5.703125 10.46875 
Q 6.734375 11.40625 8.015625 11.40625 
Q 8.71875 11.40625 9.296875 11.109375 
z
" id="JasmineUPC-3623"/>
      <path d="M 12.796875 23.515625 
Q 10.203125 21.484375 10.203125 15.796875 
Q 10.203125 9.640625 13.3125 7 
Q 16.546875 4.203125 20.609375 4.203125 
Q 23.640625 4.203125 26.1875 5.875 
Q 28.734375 7.546875 29.90625 10.59375 
Q 31.8125 15.203125 31.8125 21.40625 
Q 31.8125 29.609375 27.90625 33.40625 
Q 25.203125 36.109375 19.703125 36.109375 
Q 15.828125 36.109375 13.5 34.40625 
Q 12.890625 33.953125 12.046875 32.625 
Q 11.203125 31.296875 10.109375 30.8125 
Q 9.375 30.5 8.5 30.5 
Q 6 30.671875 6 33.59375 
Q 6.84375 36.640625 10.9375 38.421875 
Q 15.046875 40.203125 20.703125 40.203125 
Q 26.640625 40.0625 30.609375 37.703125 
Q 34.578125 35.359375 36.484375 31.234375 
Q 38.40625 27.125 38.40625 21.796875 
Q 38.40625 12.40625 34.65625 6.15625 
Q 30.90625 -0.09375 21.515625 -0.296875 
Q 13.765625 -0.296875 9 3.421875 
Q 4.25 7.15625 4.109375 14.703125 
Q 4.109375 21.921875 7.265625 25.515625 
Q 10.421875 29.109375 15.890625 29.109375 
Q 18.015625 29.03125 19.40625 27.765625 
Q 20.796875 26.515625 20.796875 25 
Q 20.796875 23.484375 19.40625 22.796875 
Q 18.734375 22.40625 18 22.40625 
Q 17.21875 22.40625 16.03125 23.203125 
Q 14.84375 24 14.203125 24 
Q 13.421875 24 12.796875 23.515625 
z
" id="JasmineUPC-3629"/>
      <path d="M -11.5 -12.015625 
Q -11.5 -11.015625 -12.03125 -10.46875 
Q -12.578125 -9.9375 -13.609375 -9.40625 
Q -14.65625 -8.890625 -15.125 -8.46875 
Q -15.609375 -8.0625 -15.609375 -7.296875 
Q -15.453125 -5.9375 -13.15625 -4.828125 
Q -10.859375 -3.71875 -8.6875 -3.71875 
Q -7.59375 -3.71875 -7.203125 -3.90625 
Q -5.765625 -4.515625 -5.4375 -6.34375 
Q -5.109375 -8.171875 -5.109375 -11.6875 
L -5.109375 -14.59375 
Q -5.109375 -14.96875 -4.75 -15.46875 
Q -4.390625 -15.96875 -4.390625 -16.609375 
Q -4.515625 -18.5 -8.296875 -18.5 
Q -10.625 -18.5 -11.46875 -18.140625 
Q -12.3125 -17.78125 -12.3125 -16.609375 
Q -12.25 -15.984375 -11.875 -15.515625 
Q -11.5 -15.046875 -11.5 -14.703125 
z
" id="JasmineUPC-3640"/>
      <path d="M 7.203125 14.40625 
L 7.6875 31.8125 
Q 7.6875 32.78125 7.125 33.34375 
Q 6.5625 33.90625 5.5 34.4375 
Q 4.4375 34.984375 4.015625 35.359375 
Q 3.59375 35.75 3.59375 36.5 
Q 3.765625 37.859375 6.046875 38.96875 
Q 8.328125 40.09375 10.5 40.09375 
Q 11.59375 40.09375 12.015625 39.890625 
Q 13.453125 39.28125 13.78125 37.453125 
Q 14.109375 35.625 14.109375 32.109375 
L 13.703125 13.59375 
Q 13.703125 8.84375 16.390625 6.421875 
Q 19.09375 4 23.90625 4 
Q 30.109375 4.078125 32 6.859375 
Q 33.90625 9.640625 33.90625 14.109375 
L 33.90625 32.78125 
Q 33.90625 34.515625 33.53125 35.15625 
Q 33.15625 35.796875 32.4375 36.46875 
Q 31.734375 37.140625 31.6875 37.890625 
Q 31.6875 39.203125 32.4375 39.59375 
Q 33.203125 39.984375 34.90625 39.984375 
L 37.109375 39.984375 
Q 40.359375 39.984375 41.421875 39.671875 
Q 42.5 39.375 42.5 37.890625 
Q 42.484375 37.25 41.765625 36.453125 
Q 41.046875 35.671875 40.671875 35.03125 
Q 40.3125 34.40625 40.3125 32.78125 
L 40.3125 14.109375 
Q 40.3125 6.296875 35.9375 3.046875 
Q 31.5625 -0.203125 23.8125 -0.203125 
Q 19 -0.203125 15.265625 1.203125 
Q 11.546875 2.609375 9.375 5.875 
Q 7.203125 9.15625 7.203125 14.40625 
z
" id="JasmineUPC-3610"/>
      <path d="M -14.109375 55.296875 
Q -13.203125 53.390625 -7.90625 53.390625 
Q -2.546875 53.390625 0.484375 55 
Q 2.484375 56.03125 3.515625 56.9375 
Q 4.546875 57.84375 5.328125 58.765625 
Q 6.109375 59.6875 6.5 59.6875 
Q 7.109375 59.40625 7.109375 57.109375 
Q 7.109375 55.109375 6.6875 54.296875 
Q 6.0625 52.828125 2.234375 51.3125 
Q -1.59375 49.8125 -7.109375 49.8125 
Q -9.40625 49.8125 -12.109375 50.09375 
Q -15.71875 50.609375 -18.40625 52.265625 
Q -21.09375 53.9375 -21.09375 57 
Q -20.625 58.640625 -18.90625 59.375 
Q -17.1875 60.109375 -15.3125 60.109375 
Q -14.1875 60.109375 -13.796875 59.90625 
Q -12.984375 59.46875 -12.984375 58.796875 
Q -12.984375 58.40625 -13.546875 57.28125 
Q -14.109375 56.15625 -14.109375 55.296875 
z
" id="JasmineUPC-3633"/>
      <path d="M 36.890625 36.796875 
Q 38.875 34.71875 39.484375 32.375 
Q 40.09375 30.03125 40.09375 26.296875 
L 40.09375 7.203125 
Q 40.09375 5.640625 40.46875 4.984375 
Q 40.84375 4.328125 41.5625 3.546875 
Q 42.28125 2.78125 42.3125 2.09375 
Q 42.3125 0.65625 41.234375 0.328125 
Q 40.15625 0 36.890625 0 
L 34.6875 0 
Q 32.984375 0 32.234375 0.390625 
Q 31.5 0.78125 31.5 2.09375 
Q 31.515625 2.8125 32.25 3.53125 
Q 32.984375 4.265625 33.328125 4.890625 
Q 33.6875 5.515625 33.6875 7.203125 
L 33.6875 26.296875 
Q 33.6875 35.203125 28.8125 35.796875 
Q 28.375 35.796875 26.203125 34.28125 
Q 24.046875 32.78125 23.609375 32.78125 
Q 23.140625 32.859375 21.09375 34.328125 
Q 19.0625 35.796875 18.40625 35.796875 
Q 16.0625 35.640625 14.015625 32.75 
Q 11.96875 29.859375 11.5 25.703125 
Q 11.40625 24.90625 11.40625 23.09375 
Q 11.40625 18.453125 12.421875 12.84375 
Q 13.453125 7.234375 14.5 5.6875 
Q 15.046875 6.546875 16.1875 8.640625 
Q 17.328125 10.75 18.609375 13.59375 
Q 21.1875 19.453125 21.1875 23.390625 
Q 21.015625 24.078125 20.53125 24.4375 
Q 20.046875 24.8125 19.265625 25.078125 
Q 18.5 25.359375 18.1875 25.546875 
Q 17.890625 25.734375 17.890625 26.203125 
Q 17.890625 27.546875 20.078125 28.625 
Q 22.265625 29.71875 24.390625 29.71875 
Q 24.875 29.71875 25.8125 29.5 
Q 27.8125 28.875 27.8125 25.296875 
Q 27.8125 24.140625 27.390625 21.609375 
Q 26.515625 17.09375 24.78125 13.4375 
Q 23.046875 9.796875 19.609375 3.59375 
Q 18.21875 1.296875 17.078125 0.640625 
Q 15.9375 0 13.5 0 
Q 11.703125 0 10.859375 0.359375 
Q 10.015625 0.734375 9.015625 2.09375 
Q 7.640625 4.03125 6.421875 9.890625 
Q 5.203125 15.75 5.203125 21.515625 
Q 5.203125 28.8125 7.203125 32.90625 
Q 9.109375 36.890625 12.15625 38.640625 
Q 15.21875 40.40625 17.609375 40.40625 
Q 18.703125 40.375 19.953125 39.796875 
Q 21.21875 39.234375 22.4375 38.46875 
Q 23.65625 37.703125 23.8125 37.703125 
Q 23.8125 37.703125 26.203125 39.046875 
Q 28.59375 40.40625 29.8125 40.40625 
Q 33.546875 40.40625 36.890625 36.796875 
z
" id="JasmineUPC-3605"/>
      <path d="M -6.5 47.609375 
Q -6.734375 47.609375 -8.671875 48.234375 
Q -10.625 48.859375 -13.734375 49.328125 
Q -16.84375 49.8125 -21.703125 49.8125 
Q -25.78125 49.8125 -28.484375 49.28125 
Q -31.203125 48.75 -33.453125 48.015625 
Q -35.71875 47.296875 -36.40625 47.296875 
Q -36.921875 47.296875 -37.40625 47.609375 
Q -37.890625 47.96875 -37.890625 49 
Q -37.890625 50.140625 -37.09375 51.421875 
Q -36.3125 52.703125 -35.203125 53.296875 
Q -32.953125 54.5 -22.296875 54.5 
Q -12.328125 54.5 -8.5 53.484375 
Q -7.34375 53.296875 -6.421875 51.859375 
Q -5.5 50.421875 -5.5 49.09375 
Q -5.5 47.90625 -6.5 47.609375 
z
" id="JasmineUPC-3636"/>
      <path d="M 12.703125 9.796875 
Q 12.703125 7.640625 13.484375 6.765625 
Q 14.265625 5.890625 15.5625 5.3125 
Q 16.875 4.734375 17 4.203125 
Q 17 2.546875 14.765625 1.171875 
Q 12.53125 -0.203125 10.203125 -0.203125 
Q 8.46875 0.03125 7.375 2.390625 
Q 6.296875 4.765625 6.296875 9.015625 
L 6.296875 32.78125 
Q 6.296875 34.515625 5.921875 35.15625 
Q 5.546875 35.796875 4.828125 36.484375 
Q 4.125 37.1875 4.109375 37.890625 
Q 4.109375 39.234375 4.84375 39.609375 
Q 5.59375 39.984375 7.296875 39.984375 
L 9.5 39.984375 
Q 12.75 39.984375 13.8125 39.671875 
Q 14.890625 39.375 14.890625 37.890625 
Q 14.875 37.25 14.140625 36.453125 
Q 13.421875 35.671875 13.0625 35.03125 
Q 12.703125 34.40625 12.703125 32.78125 
z
" id="JasmineUPC-3648"/>
      <path d="M 19.3125 28.90625 
Q 22.015625 31.078125 24.171875 31.78125 
Q 26.34375 32.5 27.203125 32.5 
Q 26.46875 32.5 24.53125 33.703125 
Q 22.609375 34.90625 22.609375 36.796875 
Q 23.296875 40.40625 31.59375 40.40625 
Q 35.109375 40.40625 37.75 39.46875 
Q 40.40625 38.546875 40.609375 36.296875 
Q 40.609375 34.078125 38.3125 33.09375 
Q 36.015625 32.109375 34.796875 32.109375 
Q 35.25 32.109375 36.9375 30.9375 
Q 38.625 29.78125 39.5 28.203125 
Q 40.890625 25.203125 40.890625 19.3125 
L 40.890625 7.203125 
Q 40.890625 5.59375 41.25 4.953125 
Q 41.625 4.328125 42.34375 3.546875 
Q 43.0625 2.78125 43.09375 2.09375 
Q 43.09375 0.65625 42.015625 0.328125 
Q 40.9375 0 37.703125 0 
L 35.5 0 
Q 33.796875 0 33.046875 0.390625 
Q 32.296875 0.78125 32.296875 2.09375 
Q 32.328125 2.8125 33.0625 3.53125 
Q 33.796875 4.265625 34.140625 4.890625 
Q 34.5 5.515625 34.5 7.203125 
L 34.5 19.3125 
Q 34.5 23.390625 33.625 25.609375 
Q 32.765625 27.828125 29.8125 28.296875 
Q 23.484375 28.296875 19.09375 22.296875 
Q 17 19.359375 15.65625 15.65625 
Q 14.3125 11.96875 14.3125 10.015625 
L 14.3125 7.203125 
Q 14.3125 5.671875 14.703125 4.96875 
Q 15.09375 4.265625 15.828125 3.515625 
Q 16.578125 2.765625 16.609375 2.09375 
Q 16.609375 0.65625 15.53125 0.328125 
Q 14.453125 0 11.203125 0 
L 9.109375 0 
Q 7.375 0 6.59375 0.390625 
Q 5.8125 0.78125 5.8125 2.09375 
Q 5.890625 2.8125 6.5625 3.53125 
Q 7.234375 4.265625 7.5625 4.96875 
Q 7.90625 5.671875 7.90625 7.203125 
L 7.90625 32 
Q 7.90625 33.015625 7.375 33.546875 
Q 6.84375 34.078125 5.75 34.625 
Q 4.671875 35.1875 4.234375 35.5625 
Q 3.8125 35.9375 3.8125 36.6875 
Q 3.953125 38.0625 6.234375 39.1875 
Q 8.515625 40.3125 10.6875 40.3125 
Q 11.796875 40.3125 12.203125 40.09375 
Q 13.65625 39.484375 13.984375 37.640625 
Q 14.3125 35.8125 14.3125 32.296875 
L 14.3125 26.703125 
L 13.796875 21.515625 
Q 14.203125 22.53125 15.5625 24.71875 
Q 16.921875 26.90625 19.3125 28.90625 
z
" id="JasmineUPC-3627"/>
     </defs>
     <g transform="translate(191.502187 323.605875)scale(0.2 -0.2)">
      <use xlink:href="#JasmineUPC-3592"/>
      <use x="39.208984" xlink:href="#JasmineUPC-3635"/>
      <use x="73.217773" xlink:href="#JasmineUPC-3609"/>
      <use x="118.310547" xlink:href="#JasmineUPC-3623"/>
      <use x="157.910156" xlink:href="#JasmineUPC-3609"/>
      <use x="203.00293" xlink:href="#JasmineUPC-3629"/>
      <use x="244.897461" xlink:href="#JasmineUPC-3640"/>
      <use x="244.897461" xlink:href="#JasmineUPC-3610"/>
      <use x="291.308594" xlink:href="#JasmineUPC-3633"/>
      <use x="291.308594" xlink:href="#JasmineUPC-3605"/>
      <use x="336.59668" xlink:href="#JasmineUPC-3636"/>
      <use x="336.59668" xlink:href="#JasmineUPC-3648"/>
      <use x="355.102539" xlink:href="#JasmineUPC-3627"/>
      <use x="401.293945" xlink:href="#JasmineUPC-3605"/>
      <use x="446.582031" xlink:href="#JasmineUPC-3640"/>
     </g>
    </g>
   </g>
   <g id="matplotlib.axis_2">
    <g id="text_2">
     <!-- หน่วย(ครั้ง) -->
     <defs>
      <path d="M -9.015625 60.59375 
Q -5.90625 60.59375 -5.90625 58.90625 
L -5.90625 49.390625 
Q -5.90625 48.40625 -6.59375 48.046875 
Q -7.296875 47.703125 -9.109375 47.703125 
Q -12.3125 47.703125 -12.3125 49.390625 
L -12.3125 58.90625 
Q -12.3125 60.59375 -9.015625 60.59375 
z
" id="JasmineUPC-3656"/>
      <path d="M 32.59375 30.390625 
Q 32.59375 32.171875 31.984375 32.859375 
Q 31.375 33.5625 30.09375 34.53125 
Q 28.8125 35.5 28.8125 36.296875 
Q 28.890625 37.421875 31.171875 38.8125 
Q 33.46875 40.203125 35.59375 40.203125 
Q 38.984375 39.96875 38.984375 29 
L 38.984375 15.203125 
Q 38.984375 -0.296875 21.40625 -0.296875 
Q 16.875 -0.296875 13.203125 1.234375 
Q 9.546875 2.78125 7.46875 5.71875 
Q 5.390625 8.671875 5.390625 12.59375 
Q 5.59375 16.328125 7.59375 18.53125 
Q 9.59375 20.734375 11.75 21.5625 
Q 13.921875 22.40625 14.703125 22.40625 
Q 12.796875 22.40625 9.765625 23.5 
Q 6.734375 24.609375 5.59375 27.8125 
Q 5.109375 29.328125 5.109375 30.59375 
Q 5.109375 32.84375 6.296875 34.90625 
Q 7.5 36.984375 9.5 38.3125 
Q 12.703125 40.3125 16.796875 40.3125 
Q 20.84375 40.3125 22.515625 38.203125 
Q 23.390625 37.015625 23.390625 35.59375 
Q 23.390625 33.40625 21.609375 33.109375 
Q 20.6875 33.109375 20.15625 33.390625 
Q 19.625 33.671875 18.78125 34.390625 
Q 17.953125 35.125 17.34375 35.453125 
Q 16.75 35.796875 15.890625 35.796875 
Q 12.03125 35.671875 11.5 31.203125 
Q 11.5 28.421875 13.765625 26.75 
Q 16.046875 25.078125 18.890625 25 
Q 21.40625 25 24.046875 26 
Q 26.6875 27 27 27 
Q 27.421875 27 27.71875 26.609375 
Q 28.203125 25.75 28.203125 25.203125 
Q 28.203125 24.6875 27.90625 24.1875 
Q 27.6875 23.796875 24.609375 22.8125 
Q 21.53125 21.828125 18.953125 20.703125 
Q 16.390625 19.578125 14.265625 17.375 
Q 12.140625 15.1875 12.109375 12.015625 
Q 12.109375 3.515625 21.296875 3.390625 
Q 32.59375 3.390625 32.59375 15.984375 
z
" id="JasmineUPC-3618"/>
      <path d="M 21.296875 -7.59375 
Q 21.296875 -8.59375 20.609375 -8.59375 
Q 19.4375 -8.59375 17.25 -6.671875 
Q 15.0625 -4.765625 12.84375 -1.078125 
Q 10.640625 2.59375 9.15625 7.9375 
Q 7.6875 13.28125 7.6875 20 
Q 7.6875 26.59375 9.265625 32.03125 
Q 10.84375 37.46875 13.171875 41.171875 
Q 15.5 44.890625 17.640625 46.796875 
Q 19.796875 48.703125 20.90625 48.703125 
Q 21.296875 48.703125 21.296875 47.609375 
Q 21.125 47.171875 19.703125 44.96875 
Q 18.28125 42.78125 17 39.765625 
Q 15.71875 36.75 14.796875 31.78125 
Q 13.890625 26.8125 13.890625 20 
Q 14.046875 12.703125 15.03125 7.65625 
Q 16.015625 2.609375 17.203125 -0.03125 
Q 18.390625 -2.6875 19.78125 -4.8125 
Q 21.171875 -6.953125 21.296875 -7.59375 
z
" id="JasmineUPC-40"/>
      <path d="M 7.796875 33.015625 
Q 12.25 40.3125 22.703125 40.3125 
Q 26.125 40.3125 29.15625 39.53125 
Q 32.203125 38.75 33.5 37.796875 
Q 37.09375 35.375 38.296875 32.78125 
Q 39.5 30.203125 39.5 26.296875 
L 39.5 7.203125 
Q 39.5 5.59375 39.859375 4.953125 
Q 40.234375 4.328125 40.953125 3.546875 
Q 41.671875 2.78125 41.703125 2.09375 
Q 41.703125 0.65625 40.625 0.328125 
Q 39.546875 0 36.3125 0 
L 34.109375 0 
Q 32.40625 0 31.65625 0.390625 
Q 30.90625 0.78125 30.90625 2.09375 
Q 30.9375 2.8125 31.671875 3.53125 
Q 32.40625 4.265625 32.75 4.890625 
Q 33.109375 5.515625 33.109375 7.203125 
L 33.109375 26.296875 
Q 33.109375 35.765625 22.796875 36.015625 
Q 12.578125 36.015625 11.5 25.90625 
Q 11.40625 25 11.40625 23.09375 
Q 11.40625 18.015625 12.359375 12.625 
Q 13.3125 7.25 14.5 5.90625 
Q 14.5 7.34375 16.796875 17.890625 
Q 17.953125 23.09375 19.0625 26 
Q 20.171875 28.90625 21.796875 29.296875 
Q 24.265625 29.296875 26.421875 28.1875 
Q 28.59375 27.09375 28.8125 25.703125 
Q 28.8125 25 28.34375 24.703125 
Q 27.875 24.421875 26.84375 24.09375 
Q 25.828125 23.78125 25.171875 23.390625 
Q 24.53125 23.015625 24.203125 22.1875 
Q 23.171875 19.234375 22.5 16.390625 
Q 21.828125 13.546875 20.9375 9.71875 
Q 20.0625 5.890625 19.3125 3.59375 
Q 18.5 1.21875 17.578125 0.609375 
Q 16.65625 0 14.40625 0 
Q 11.71875 0 10.453125 0.953125 
Q 9.203125 1.921875 7.90625 5.59375 
Q 5 13.546875 5 21.40625 
Q 5 28.375 7.796875 33.015625 
z
" id="JasmineUPC-3588"/>
      <path d="M 28.71875 8.40625 
Q 30.109375 10.6875 30.109375 14.5 
Q 30.109375 19.3125 27.484375 21.796875 
Q 26.125 23.078125 21.5 23.953125 
Q 16.875 24.828125 12.984375 25.515625 
Q 9.109375 26.203125 6.328125 27.484375 
Q 3.546875 28.765625 3.203125 31.203125 
Q 3.203125 34.90625 6.375 37.328125 
Q 9.546875 39.765625 14.984375 40.203125 
Q 15.890625 40.3125 17.40625 40.3125 
Q 19.3125 40.3125 20.5625 40.09375 
Q 21.828125 39.875 23.671875 39.375 
Q 25.515625 38.890625 26.359375 38.734375 
Q 27.21875 38.59375 28.59375 38.59375 
Q 29.9375 38.59375 30.65625 39.28125 
Q 31.375 39.984375 31.90625 39.984375 
Q 32.796875 39.984375 33.578125 39.0625 
Q 34.359375 38.15625 34.5 36.6875 
Q 34.5 33.59375 30.90625 33.59375 
Q 30.421875 33.59375 29.203125 33.796875 
Q 27.6875 34.078125 25.484375 34.71875 
Q 23.296875 35.375 21.546875 35.734375 
Q 19.796875 36.109375 17.609375 36.109375 
Q 14.765625 36.03125 12.65625 35.125 
Q 10.546875 34.234375 9.796875 32.6875 
Q 9.796875 31.546875 11.765625 30.875 
Q 13.75 30.21875 18.25 29.46875 
Q 22.75 28.71875 25.625 28.0625 
Q 28.515625 27.421875 30.8125 26.203125 
Q 36.3125 23.3125 36.3125 14.984375 
Q 36.3125 10.96875 35.109375 7.78125 
Q 33.71875 3.828125 29.609375 1.75 
Q 25.515625 -0.3125 19.609375 -0.390625 
Q 13.9375 -0.390625 9.5625 1.59375 
Q 5.203125 3.59375 5.203125 8.015625 
Q 5.609375 11.796875 9.203125 11.796875 
Q 10.796875 11.71875 11.640625 10.8125 
Q 12.5 9.90625 12.5 8.59375 
Q 12.5 7.8125 12.015625 7 
Q 11.59375 6.21875 11.59375 6 
Q 11.59375 4.59375 14.171875 3.890625 
Q 16.75 3.203125 19.40625 3.203125 
Q 25.6875 3.34375 28.71875 8.40625 
z
" id="JasmineUPC-3619"/>
      <path d="M -11.5 51.484375 
Q -11.5 51 -9.6875 51 
Q -6.84375 51 -5.40625 51.796875 
Q -3.984375 52.609375 -3.34375 53.375 
Q -2.71875 54.15625 -2.515625 54.796875 
Q -2.328125 55.4375 -2.09375 56.109375 
Q -1.859375 56.59375 0.390625 56.59375 
Q 3.21875 56.59375 3.5 55.90625 
Q 3.5 53.59375 0.484375 51.09375 
Q -2.515625 48.609375 -6.390625 48 
Q -8.671875 47.703125 -11.59375 47.703125 
Q -18.3125 47.703125 -18.3125 49.390625 
Q -18.265625 49.78125 -17.484375 50.796875 
Q -16.703125 51.828125 -16.703125 53.09375 
Q -16.703125 53.609375 -16.984375 53.859375 
Q -17.265625 54.109375 -17.859375 54.296875 
Q -18.453125 54.5 -18.796875 54.6875 
Q -19.140625 54.890625 -19.1875 55.203125 
Q -19.1875 56.34375 -17.265625 57.0625 
Q -15.359375 57.78125 -13.3125 57.78125 
Q -11.421875 57.78125 -10.796875 57.296875 
Q -9.90625 56.671875 -9.90625 55.296875 
Q -9.90625 53.15625 -11.5 51.484375 
z
" id="JasmineUPC-3657"/>
      <path d="M 9.296875 24.1875 
Q 9.96875 20.875 12.59375 14.640625 
Q 15.21875 8.421875 16.703125 6.203125 
Q 18.046875 4.203125 20 4.203125 
Q 21.65625 4.203125 23.1875 5.546875 
Q 24.734375 6.90625 25.390625 8.59375 
Q 27.296875 13.203125 27.296875 19.5 
Q 27.296875 25.65625 25.578125 30.171875 
Q 23.859375 34.6875 21.09375 34.6875 
Q 20.484375 34.6875 20.109375 34.40625 
Q 19.734375 34.125 19.109375 33.453125 
Q 18.484375 32.78125 18.078125 32.484375 
Q 17.671875 32.203125 17.09375 32.203125 
Q 15.21875 32.34375 15.21875 34.90625 
Q 15.21875 36.5 16.21875 37.921875 
Q 17.21875 39.359375 19.09375 39.890625 
Q 20.796875 40.3125 21.515625 40.3125 
Q 24.640625 40.3125 27.453125 38.125 
Q 30.28125 35.9375 32.078125 31.890625 
Q 33.890625 27.859375 34.109375 22.609375 
Q 34.109375 22.1875 34.15625 21.375 
Q 34.203125 20.578125 34.203125 20.1875 
Q 34.203125 8.765625 29 3.09375 
Q 27.46875 1.421875 24.796875 0.515625 
Q 22.140625 -0.390625 19.3125 -0.390625 
Q 14.203125 -0.390625 12.203125 2.203125 
Q 11.15625 3.640625 9.5625 7.125 
Q 7.984375 10.625 6.328125 14.890625 
Q 4.6875 19.171875 3.90625 21.515625 
Q 3.109375 23.640625 3.109375 24.296875 
Q 3.109375 25.59375 4.5 26.609375 
Q 6.421875 28.09375 7.5 28.09375 
Q 8.1875 28.09375 8.515625 27.53125 
Q 8.859375 26.984375 9.015625 26.03125 
Q 9.1875 25.078125 9.296875 24.1875 
z
" id="JasmineUPC-3591"/>
      <path d="M 13.3125 20 
Q 13.3125 26.921875 12.40625 31.859375 
Q 11.5 36.8125 10.265625 39.671875 
Q 9.03125 42.546875 7.546875 44.859375 
Q 6.078125 47.1875 5.90625 47.609375 
Q 5.90625 48.703125 6.296875 48.703125 
Q 7.40625 48.703125 9.609375 46.75 
Q 11.8125 44.796875 14.078125 41.125 
Q 16.359375 37.46875 17.9375 32.09375 
Q 19.515625 26.734375 19.515625 20 
Q 19.515625 13.359375 18 7.890625 
Q 16.5 2.421875 14.296875 -1.1875 
Q 12.09375 -4.8125 9.953125 -6.703125 
Q 7.8125 -8.59375 6.59375 -8.59375 
Q 5.90625 -8.59375 5.90625 -7.59375 
Q 6 -7.0625 7.375 -4.9375 
Q 8.765625 -2.828125 10 -0.046875 
Q 11.234375 2.734375 12.21875 7.703125 
Q 13.203125 12.671875 13.3125 20 
z
" id="JasmineUPC-41"/>
     </defs>
     <g transform="translate(51.159375 209.257688)rotate(-90)scale(0.2 -0.2)">
      <use xlink:href="#JasmineUPC-3627"/>
      <use x="46.191406" xlink:href="#JasmineUPC-3609"/>
      <use x="91.28418" xlink:href="#JasmineUPC-3656"/>
      <use x="91.28418" xlink:href="#JasmineUPC-3623"/>
      <use x="130.883789" xlink:href="#JasmineUPC-3618"/>
      <use x="174.682617" xlink:href="#JasmineUPC-40"/>
      <use x="199.584961" xlink:href="#JasmineUPC-3588"/>
      <use x="244.287109" xlink:href="#JasmineUPC-3619"/>
      <use x="284.887695" xlink:href="#JasmineUPC-3633"/>
      <use x="284.887695" xlink:href="#JasmineUPC-3657"/>
      <use x="284.887695" xlink:href="#JasmineUPC-3591"/>
      <use x="322.387695" xlink:href="#JasmineUPC-41"/>
     </g>
    </g>
   </g>
   <g id="text_3">
    <!-- 2014 -->
    <defs>
     <path d="M 19.1875 8.296875 
L 53.609375 8.296875 
L 53.609375 0 
L 7.328125 0 
L 7.328125 8.296875 
Q 12.9375 14.109375 22.625 23.890625 
Q 32.328125 33.6875 34.8125 36.53125 
Q 39.546875 41.84375 41.421875 45.53125 
Q 43.3125 49.21875 43.3125 52.78125 
Q 43.3125 58.59375 39.234375 62.25 
Q 35.15625 65.921875 28.609375 65.921875 
Q 23.96875 65.921875 18.8125 64.3125 
Q 13.671875 62.703125 7.8125 59.421875 
L 7.8125 69.390625 
Q 13.765625 71.78125 18.9375 73 
Q 24.125 74.21875 28.421875 74.21875 
Q 39.75 74.21875 46.484375 68.546875 
Q 53.21875 62.890625 53.21875 53.421875 
Q 53.21875 48.921875 51.53125 44.890625 
Q 49.859375 40.875 45.40625 35.40625 
Q 44.1875 33.984375 37.640625 27.21875 
Q 31.109375 20.453125 19.1875 8.296875 
z
" id="DejaVuSans-50"/>
     <path d="M 31.78125 66.40625 
Q 24.171875 66.40625 20.328125 58.90625 
Q 16.5 51.421875 16.5 36.375 
Q 16.5 21.390625 20.328125 13.890625 
Q 24.171875 6.390625 31.78125 6.390625 
Q 39.453125 6.390625 43.28125 13.890625 
Q 47.125 21.390625 47.125 36.375 
Q 47.125 51.421875 43.28125 58.90625 
Q 39.453125 66.40625 31.78125 66.40625 
z
M 31.78125 74.21875 
Q 44.046875 74.21875 50.515625 64.515625 
Q 56.984375 54.828125 56.984375 36.375 
Q 56.984375 17.96875 50.515625 8.265625 
Q 44.046875 -1.421875 31.78125 -1.421875 
Q 19.53125 -1.421875 13.0625 8.265625 
Q 6.59375 17.96875 6.59375 36.375 
Q 6.59375 54.828125 13.0625 64.515625 
Q 19.53125 74.21875 31.78125 74.21875 
z
" id="DejaVuSans-48"/>
     <path d="M 12.40625 8.296875 
L 28.515625 8.296875 
L 28.515625 63.921875 
L 10.984375 60.40625 
L 10.984375 69.390625 
L 28.421875 72.90625 
L 38.28125 72.90625 
L 38.28125 8.296875 
L 54.390625 8.296875 
L 54.390625 0 
L 12.40625 0 
z
" id="DejaVuSans-49"/>
     <path d="M 37.796875 64.3125 
L 12.890625 25.390625 
L 37.796875 25.390625 
z
M 35.203125 72.90625 
L 47.609375 72.90625 
L 47.609375 25.390625 
L 58.015625 25.390625 
L 58.015625 17.1875 
L 47.609375 17.1875 
L 47.609375 0 
L 37.796875 0 
L 37.796875 17.1875 
L 4.890625 17.1875 
L 4.890625 26.703125 
z
" id="DejaVuSans-52"/>
    </defs>
    <g transform="translate(138.661492 65.469786)scale(0.1 -0.1)">
     <use xlink:href="#DejaVuSans-50"/>
     <use x="63.623047" xlink:href="#DejaVuSans-48"/>
     <use x="127.246094" xlink:href="#DejaVuSans-49"/>
     <use x="190.869141" xlink:href="#DejaVuSans-52"/>
    </g>
   </g>
   <g id="text_4">
    <!-- 18.3% -->
    <defs>
     <path d="M 31.78125 34.625 
Q 24.75 34.625 20.71875 30.859375 
Q 16.703125 27.09375 16.703125 20.515625 
Q 16.703125 13.921875 20.71875 10.15625 
Q 24.75 6.390625 31.78125 6.390625 
Q 38.8125 6.390625 42.859375 10.171875 
Q 46.921875 13.96875 46.921875 20.515625 
Q 46.921875 27.09375 42.890625 30.859375 
Q 38.875 34.625 31.78125 34.625 
z
M 21.921875 38.8125 
Q 15.578125 40.375 12.03125 44.71875 
Q 8.5 49.078125 8.5 55.328125 
Q 8.5 64.0625 14.71875 69.140625 
Q 20.953125 74.21875 31.78125 74.21875 
Q 42.671875 74.21875 48.875 69.140625 
Q 55.078125 64.0625 55.078125 55.328125 
Q 55.078125 49.078125 51.53125 44.71875 
Q 48 40.375 41.703125 38.8125 
Q 48.828125 37.15625 52.796875 32.3125 
Q 56.78125 27.484375 56.78125 20.515625 
Q 56.78125 9.90625 50.3125 4.234375 
Q 43.84375 -1.421875 31.78125 -1.421875 
Q 19.734375 -1.421875 13.25 4.234375 
Q 6.78125 9.90625 6.78125 20.515625 
Q 6.78125 27.484375 10.78125 32.3125 
Q 14.796875 37.15625 21.921875 38.8125 
z
M 18.3125 54.390625 
Q 18.3125 48.734375 21.84375 45.5625 
Q 25.390625 42.390625 31.78125 42.390625 
Q 38.140625 42.390625 41.71875 45.5625 
Q 45.3125 48.734375 45.3125 54.390625 
Q 45.3125 60.0625 41.71875 63.234375 
Q 38.140625 66.40625 31.78125 66.40625 
Q 25.390625 66.40625 21.84375 63.234375 
Q 18.3125 60.0625 18.3125 54.390625 
z
" id="DejaVuSans-56"/>
     <path d="M 10.6875 12.40625 
L 21 12.40625 
L 21 0 
L 10.6875 0 
z
" id="DejaVuSans-46"/>
     <path d="M 40.578125 39.3125 
Q 47.65625 37.796875 51.625 33 
Q 55.609375 28.21875 55.609375 21.1875 
Q 55.609375 10.40625 48.1875 4.484375 
Q 40.765625 -1.421875 27.09375 -1.421875 
Q 22.515625 -1.421875 17.65625 -0.515625 
Q 12.796875 0.390625 7.625 2.203125 
L 7.625 11.71875 
Q 11.71875 9.328125 16.59375 8.109375 
Q 21.484375 6.890625 26.8125 6.890625 
Q 36.078125 6.890625 40.9375 10.546875 
Q 45.796875 14.203125 45.796875 21.1875 
Q 45.796875 27.640625 41.28125 31.265625 
Q 36.765625 34.90625 28.71875 34.90625 
L 20.21875 34.90625 
L 20.21875 43.015625 
L 29.109375 43.015625 
Q 36.375 43.015625 40.234375 45.921875 
Q 44.09375 48.828125 44.09375 54.296875 
Q 44.09375 59.90625 40.109375 62.90625 
Q 36.140625 65.921875 28.71875 65.921875 
Q 24.65625 65.921875 20.015625 65.03125 
Q 15.375 64.15625 9.8125 62.3125 
L 9.8125 71.09375 
Q 15.4375 72.65625 20.34375 73.4375 
Q 25.25 74.21875 29.59375 74.21875 
Q 40.828125 74.21875 47.359375 69.109375 
Q 53.90625 64.015625 53.90625 55.328125 
Q 53.90625 49.265625 50.4375 45.09375 
Q 46.96875 40.921875 40.578125 39.3125 
z
" id="DejaVuSans-51"/>
     <path d="M 72.703125 32.078125 
Q 68.453125 32.078125 66.03125 28.46875 
Q 63.625 24.859375 63.625 18.40625 
Q 63.625 12.0625 66.03125 8.421875 
Q 68.453125 4.78125 72.703125 4.78125 
Q 76.859375 4.78125 79.265625 8.421875 
Q 81.6875 12.0625 81.6875 18.40625 
Q 81.6875 24.8125 79.265625 28.4375 
Q 76.859375 32.078125 72.703125 32.078125 
z
M 72.703125 38.28125 
Q 80.421875 38.28125 84.953125 32.90625 
Q 89.5 27.546875 89.5 18.40625 
Q 89.5 9.28125 84.9375 3.921875 
Q 80.375 -1.421875 72.703125 -1.421875 
Q 64.890625 -1.421875 60.34375 3.921875 
Q 55.8125 9.28125 55.8125 18.40625 
Q 55.8125 27.59375 60.375 32.9375 
Q 64.9375 38.28125 72.703125 38.28125 
z
M 22.3125 68.015625 
Q 18.109375 68.015625 15.6875 64.375 
Q 13.28125 60.75 13.28125 54.390625 
Q 13.28125 47.953125 15.671875 44.328125 
Q 18.0625 40.71875 22.3125 40.71875 
Q 26.5625 40.71875 28.96875 44.328125 
Q 31.390625 47.953125 31.390625 54.390625 
Q 31.390625 60.6875 28.953125 64.34375 
Q 26.515625 68.015625 22.3125 68.015625 
z
M 66.40625 74.21875 
L 74.21875 74.21875 
L 28.609375 -1.421875 
L 20.796875 -1.421875 
z
M 22.3125 74.21875 
Q 30.03125 74.21875 34.609375 68.875 
Q 39.203125 63.53125 39.203125 54.390625 
Q 39.203125 45.171875 34.640625 39.84375 
Q 30.078125 34.515625 22.3125 34.515625 
Q 14.546875 34.515625 10.03125 39.859375 
Q 5.515625 45.21875 5.515625 54.390625 
Q 5.515625 63.484375 10.046875 68.84375 
Q 14.59375 74.21875 22.3125 74.21875 
z
" id="DejaVuSans-37"/>
    </defs>
    <g transform="translate(180.798358 115.858577)scale(0.1 -0.1)">
     <use xlink:href="#DejaVuSans-49"/>
     <use x="63.623047" xlink:href="#DejaVuSans-56"/>
     <use x="127.246094" xlink:href="#DejaVuSans-46"/>
     <use x="159.033203" xlink:href="#DejaVuSans-51"/>
     <use x="222.65625" xlink:href="#DejaVuSans-37"/>
    </g>
   </g>
   <g id="text_5">
    <!-- 2015 -->
    <defs>
     <path d="M 10.796875 72.90625 
L 49.515625 72.90625 
L 49.515625 64.59375 
L 19.828125 64.59375 
L 19.828125 46.734375 
Q 21.96875 47.46875 24.109375 47.828125 
Q 26.265625 48.1875 28.421875 48.1875 
Q 40.625 48.1875 47.75 41.5 
Q 54.890625 34.8125 54.890625 23.390625 
Q 54.890625 11.625 47.5625 5.09375 
Q 40.234375 -1.421875 26.90625 -1.421875 
Q 22.3125 -1.421875 17.546875 -0.640625 
Q 12.796875 0.140625 7.71875 1.703125 
L 7.71875 11.625 
Q 12.109375 9.234375 16.796875 8.0625 
Q 21.484375 6.890625 26.703125 6.890625 
Q 35.15625 6.890625 40.078125 11.328125 
Q 45.015625 15.765625 45.015625 23.390625 
Q 45.015625 31 40.078125 35.4375 
Q 35.15625 39.890625 26.703125 39.890625 
Q 22.75 39.890625 18.8125 39.015625 
Q 14.890625 38.140625 10.796875 36.28125 
z
" id="DejaVuSans-53"/>
    </defs>
    <g transform="translate(79.247612 191.954999)scale(0.1 -0.1)">
     <use xlink:href="#DejaVuSans-50"/>
     <use x="63.623047" xlink:href="#DejaVuSans-48"/>
     <use x="127.246094" xlink:href="#DejaVuSans-49"/>
     <use x="190.869141" xlink:href="#DejaVuSans-53"/>
    </g>
   </g>
   <g id="text_6">
    <!-- 17.2% -->
    <defs>
     <path d="M 8.203125 72.90625 
L 55.078125 72.90625 
L 55.078125 68.703125 
L 28.609375 0 
L 18.3125 0 
L 43.21875 64.59375 
L 8.203125 64.59375 
z
" id="DejaVuSans-55"/>
    </defs>
    <g transform="translate(148.390787 184.850511)scale(0.1 -0.1)">
     <use xlink:href="#DejaVuSans-49"/>
     <use x="63.623047" xlink:href="#DejaVuSans-55"/>
     <use x="127.246094" xlink:href="#DejaVuSans-46"/>
     <use x="159.033203" xlink:href="#DejaVuSans-50"/>
     <use x="222.65625" xlink:href="#DejaVuSans-37"/>
    </g>
   </g>
   <g id="text_7">
    <!-- 2016 -->
    <defs>
     <path d="M 33.015625 40.375 
Q 26.375 40.375 22.484375 35.828125 
Q 18.609375 31.296875 18.609375 23.390625 
Q 18.609375 15.53125 22.484375 10.953125 
Q 26.375 6.390625 33.015625 6.390625 
Q 39.65625 6.390625 43.53125 10.953125 
Q 47.40625 15.53125 47.40625 23.390625 
Q 47.40625 31.296875 43.53125 35.828125 
Q 39.65625 40.375 33.015625 40.375 
z
M 52.59375 71.296875 
L 52.59375 62.3125 
Q 48.875 64.0625 45.09375 64.984375 
Q 41.3125 65.921875 37.59375 65.921875 
Q 27.828125 65.921875 22.671875 59.328125 
Q 17.53125 52.734375 16.796875 39.40625 
Q 19.671875 43.65625 24.015625 45.921875 
Q 28.375 48.1875 33.59375 48.1875 
Q 44.578125 48.1875 50.953125 41.515625 
Q 57.328125 34.859375 57.328125 23.390625 
Q 57.328125 12.15625 50.6875 5.359375 
Q 44.046875 -1.421875 33.015625 -1.421875 
Q 20.359375 -1.421875 13.671875 8.265625 
Q 6.984375 17.96875 6.984375 36.375 
Q 6.984375 53.65625 15.1875 63.9375 
Q 23.390625 74.21875 37.203125 74.21875 
Q 40.921875 74.21875 44.703125 73.484375 
Q 48.484375 72.75 52.59375 71.296875 
z
" id="DejaVuSans-54"/>
    </defs>
    <g transform="translate(171.385661 302.451001)scale(0.1 -0.1)">
     <use xlink:href="#DejaVuSans-50"/>
     <use x="63.623047" xlink:href="#DejaVuSans-48"/>
     <use x="127.246094" xlink:href="#DejaVuSans-49"/>
     <use x="190.869141" xlink:href="#DejaVuSans-54"/>
    </g>
   </g>
   <g id="text_8">
    <!-- 19.4% -->
    <defs>
     <path d="M 10.984375 1.515625 
L 10.984375 10.5 
Q 14.703125 8.734375 18.5 7.8125 
Q 22.3125 6.890625 25.984375 6.890625 
Q 35.75 6.890625 40.890625 13.453125 
Q 46.046875 20.015625 46.78125 33.40625 
Q 43.953125 29.203125 39.59375 26.953125 
Q 35.25 24.703125 29.984375 24.703125 
Q 19.046875 24.703125 12.671875 31.3125 
Q 6.296875 37.9375 6.296875 49.421875 
Q 6.296875 60.640625 12.9375 67.421875 
Q 19.578125 74.21875 30.609375 74.21875 
Q 43.265625 74.21875 49.921875 64.515625 
Q 56.59375 54.828125 56.59375 36.375 
Q 56.59375 19.140625 48.40625 8.859375 
Q 40.234375 -1.421875 26.421875 -1.421875 
Q 22.703125 -1.421875 18.890625 -0.6875 
Q 15.09375 0.046875 10.984375 1.515625 
z
M 30.609375 32.421875 
Q 37.25 32.421875 41.125 36.953125 
Q 45.015625 41.5 45.015625 49.421875 
Q 45.015625 57.28125 41.125 61.84375 
Q 37.25 66.40625 30.609375 66.40625 
Q 23.96875 66.40625 20.09375 61.84375 
Q 16.21875 57.28125 16.21875 49.421875 
Q 16.21875 41.5 20.09375 36.953125 
Q 23.96875 32.421875 30.609375 32.421875 
z
" id="DejaVuSans-57"/>
    </defs>
    <g transform="translate(198.647904 245.121058)scale(0.1 -0.1)">
     <use xlink:href="#DejaVuSans-49"/>
     <use x="63.623047" xlink:href="#DejaVuSans-57"/>
     <use x="127.246094" xlink:href="#DejaVuSans-46"/>
     <use x="159.033203" xlink:href="#DejaVuSans-52"/>
     <use x="222.65625" xlink:href="#DejaVuSans-37"/>
    </g>
   </g>
   <g id="text_9">
    <!-- 2017 -->
    <g transform="translate(347.040949 247.327552)scale(0.1 -0.1)">
     <use xlink:href="#DejaVuSans-50"/>
     <use x="63.623047" xlink:href="#DejaVuSans-48"/>
     <use x="127.246094" xlink:href="#DejaVuSans-49"/>
     <use x="190.869141" xlink:href="#DejaVuSans-55"/>
    </g>
   </g>
   <g id="text_10">
    <!-- 22.0% -->
    <g transform="translate(280.578061 215.053722)scale(0.1 -0.1)">
     <use xlink:href="#DejaVuSans-50"/>
     <use x="63.623047" xlink:href="#DejaVuSans-50"/>
     <use x="127.246094" xlink:href="#DejaVuSans-46"/>
     <use x="159.033203" xlink:href="#DejaVuSans-48"/>
     <use x="222.65625" xlink:href="#DejaVuSans-37"/>
    </g>
   </g>
   <g id="text_11">
    <!-- 2018 -->
    <g transform="translate(323.170569 77.411649)scale(0.1 -0.1)">
     <use xlink:href="#DejaVuSans-50"/>
     <use x="63.623047" xlink:href="#DejaVuSans-48"/>
     <use x="127.246094" xlink:href="#DejaVuSans-49"/>
     <use x="190.869141" xlink:href="#DejaVuSans-56"/>
    </g>
   </g>
   <g id="text_12">
    <!-- 23.0% -->
    <g transform="translate(267.557854 122.37232)scale(0.1 -0.1)">
     <use xlink:href="#DejaVuSans-50"/>
     <use x="63.623047" xlink:href="#DejaVuSans-51"/>
     <use x="127.246094" xlink:href="#DejaVuSans-46"/>
     <use x="159.033203" xlink:href="#DejaVuSans-48"/>
     <use x="222.65625" xlink:href="#DejaVuSans-37"/>
    </g>
   </g>
   <g id="text_13">
    <!-- สถิติการเกิดอุบัติเหตุเปรียบเทียบทุกปี -->
    <defs>
     <path d="M 29.71875 38.703125 
Q 31.0625 38.703125 31.8125 39.984375 
Q 32.0625 40.453125 32.125 40.890625 
Q 32.203125 41.328125 32.21875 41.71875 
Q 32.25 42.109375 32.296875 42.609375 
Q 32.453125 43.3125 35.6875 43.3125 
Q 39.453125 43.3125 39.59375 42.703125 
Q 39.59375 39.984375 37.5 38.203125 
Q 35.453125 36.40625 33.796875 36.40625 
Q 34.359375 36.03125 35.359375 34.953125 
Q 36.359375 33.890625 36.890625 32.203125 
Q 37.703125 29.8125 37.703125 26.296875 
L 37.703125 9.203125 
Q 37.703125 6.296875 38.109375 4.8125 
Q 38.234375 4.375 38.859375 3.96875 
Q 39.5 3.5625 39.796875 3.21875 
Q 40.09375 2.875 40.09375 1.90625 
Q 40.09375 0.75 39.015625 0.375 
Q 37.9375 0 35.796875 0 
Q 32.765625 0 32.03125 0.90625 
Q 31.296875 1.8125 31.296875 5.296875 
L 31.296875 23.796875 
Q 29.90625 23.796875 24.734375 22.84375 
Q 19.578125 21.90625 16 20.1875 
Q 13.59375 19.0625 12.34375 16.890625 
Q 11.109375 14.71875 11.109375 12.203125 
Q 11.109375 9.25 12.6875 7.046875 
Q 14.265625 4.859375 16.796875 4.71875 
Q 18.109375 4.71875 19.25 5.609375 
Q 20.390625 6.5 21.1875 6.59375 
Q 22.515625 6.59375 23.296875 5.8125 
Q 24.09375 5.046875 24.09375 3.71875 
Q 24.03125 1.828125 21.96875 0.8125 
Q 19.90625 -0.203125 17 -0.203125 
Q 11.71875 -0.203125 8.109375 3.015625 
Q 4.5 6.25 4.5 11.890625 
Q 4.5 13.3125 4.59375 13.984375 
Q 5.609375 22.1875 17.609375 25.484375 
Q 21.296875 26.53125 25.6875 27.171875 
Q 30.078125 27.8125 31.109375 27.8125 
Q 31.109375 30.953125 29.15625 33.671875 
Q 27.21875 36.40625 21.1875 36.40625 
Q 17.5 36.375 15.578125 35.578125 
Q 13.671875 34.796875 13.140625 34.09375 
Q 12.625 33.40625 11.734375 31.84375 
Q 10.84375 30.296875 9.90625 30 
Q 8.890625 29.8125 8.6875 29.8125 
Q 7.40625 29.8125 6.703125 30.625 
Q 6 31.453125 6 32.59375 
Q 6 33.078125 6.390625 34.109375 
Q 7.890625 37.1875 12.140625 38.6875 
Q 16.40625 40.203125 21.796875 40.203125 
Q 24.734375 40.09375 26.765625 39.53125 
Q 28.8125 38.96875 29.71875 38.703125 
z
" id="JasmineUPC-3626"/>
     <path d="M 39.3125 26.296875 
L 39.3125 7.203125 
Q 39.3125 5.59375 39.671875 4.953125 
Q 40.046875 4.328125 40.765625 3.546875 
Q 41.484375 2.78125 41.5 2.09375 
Q 41.5 0.65625 40.421875 0.328125 
Q 39.359375 0 36.109375 0 
L 33.90625 0 
Q 32.203125 0 31.4375 0.40625 
Q 30.6875 0.8125 30.6875 2.09375 
Q 30.734375 2.859375 31.46875 3.5625 
Q 32.203125 4.265625 32.546875 4.890625 
Q 32.90625 5.515625 32.90625 7.203125 
L 32.90625 26.296875 
Q 32.90625 29.171875 32.390625 31.09375 
Q 31.890625 33.03125 29.671875 34.421875 
Q 27.46875 35.8125 22.90625 36.015625 
Q 20.046875 36.015625 17.671875 35.40625 
Q 15.3125 34.796875 13.953125 33.84375 
Q 12.59375 32.90625 12.59375 31.90625 
Q 12.59375 31.34375 13.046875 30.96875 
Q 13.5 30.59375 14.625 29.890625 
Q 15.765625 29.203125 16.359375 28.65625 
Q 16.96875 28.125 17 27.390625 
Q 17 26.53125 15.453125 25.1875 
Q 13.921875 23.859375 13.3125 23.140625 
Q 12.703125 22.4375 12.703125 20.796875 
L 12.703125 9.796875 
Q 12.703125 7.640625 13.484375 6.765625 
Q 14.265625 5.890625 15.5625 5.3125 
Q 16.875 4.734375 17 4.203125 
Q 17 2.546875 14.765625 1.171875 
Q 12.53125 -0.203125 10.203125 -0.203125 
Q 8.46875 0.03125 7.375 2.390625 
Q 6.296875 4.765625 6.296875 9.015625 
L 6.296875 19.3125 
Q 6.296875 21.609375 7.15625 22.796875 
Q 8.015625 24 9.34375 25.03125 
Q 10.6875 26.078125 10.6875 26.703125 
Q 10.6875 27.3125 9.046875 28.09375 
Q 7.40625 28.875 6.6875 29.328125 
Q 5.984375 29.78125 5.8125 31 
Q 5.8125 34.671875 11.109375 37.59375 
Q 15.609375 40.203125 22.609375 40.203125 
Q 29.296875 40.203125 33.296875 37.890625 
Q 36.765625 35.96875 38.03125 33.3125 
Q 39.3125 30.671875 39.3125 26.296875 
z
" id="JasmineUPC-3606"/>
     <path d="M 33.015625 26.296875 
Q 33.015625 29.265625 32.5 31.140625 
Q 31.984375 33.03125 29.765625 34.421875 
Q 27.5625 35.8125 23 36.015625 
Q 20.140625 36.015625 17.78125 35.40625 
Q 15.4375 34.796875 14.0625 33.84375 
Q 12.703125 32.90625 12.703125 31.90625 
Q 12.703125 31.34375 13.140625 30.96875 
Q 13.59375 30.59375 14.734375 29.890625 
Q 15.875 29.203125 16.46875 28.65625 
Q 17.0625 28.125 17.09375 27.390625 
Q 17.09375 26.53125 15.546875 25.1875 
Q 14.015625 23.859375 13.40625 23.140625 
Q 12.796875 22.4375 12.796875 20.796875 
L 12.796875 7.203125 
Q 12.796875 5.671875 13.1875 4.96875 
Q 13.578125 4.265625 14.3125 3.515625 
Q 15.0625 2.765625 15.09375 2.09375 
Q 15.09375 0.65625 14.015625 0.328125 
Q 12.9375 0 9.6875 0 
L 7.59375 0 
Q 5.859375 0 5.078125 0.390625 
Q 4.296875 0.78125 4.296875 2.09375 
Q 4.375 2.8125 5.046875 3.53125 
Q 5.71875 4.265625 6.046875 4.96875 
Q 6.390625 5.671875 6.390625 7.203125 
L 6.390625 19.3125 
Q 6.390625 21.609375 7.25 22.796875 
Q 8.109375 24 9.453125 25.03125 
Q 10.796875 26.078125 10.796875 26.703125 
Q 10.796875 27.3125 9.140625 28.09375 
Q 7.5 28.875 6.78125 29.328125 
Q 6.078125 29.78125 5.90625 31 
Q 5.90625 34.671875 11.203125 37.59375 
Q 15.703125 40.203125 22.703125 40.203125 
Q 29.4375 40.203125 33.40625 37.890625 
Q 36.859375 35.96875 38.125 33.3125 
Q 39.40625 30.671875 39.40625 26.296875 
L 39.40625 7.203125 
Q 39.40625 5.59375 39.765625 4.953125 
Q 40.140625 4.328125 40.859375 3.546875 
Q 41.578125 2.78125 41.609375 2.09375 
Q 41.609375 0.65625 40.53125 0.328125 
Q 39.453125 0 36.203125 0 
L 34.015625 0 
Q 32.296875 0 31.546875 0.390625 
Q 30.8125 0.78125 30.8125 2.09375 
Q 30.84375 2.8125 31.5625 3.53125 
Q 32.296875 4.265625 32.65625 4.890625 
Q 33.015625 5.515625 33.015625 7.203125 
z
" id="JasmineUPC-3585"/>
     <path d="M 18.609375 35.5 
Q 16.484375 36.5 14.109375 36.5 
Q 10.59375 36.5 8.5 34.90625 
Q 7.375 34.0625 7.015625 33.375 
Q 6.671875 32.6875 6.34375 31.625 
Q 6.03125 30.5625 5.5 30.109375 
Q 5.109375 29.71875 4.296875 29.71875 
Q 3.25 29.8125 2.359375 30.5625 
Q 1.484375 31.328125 1.484375 32.59375 
Q 1.484375 35.453125 4.59375 37.59375 
Q 8.25 40.3125 13.890625 40.3125 
Q 20.015625 40.3125 23.390625 37.890625 
Q 26.734375 35.625 27.65625 33.25 
Q 28.59375 30.890625 28.59375 26.484375 
L 28.59375 7.203125 
Q 28.59375 5.59375 28.953125 4.953125 
Q 29.328125 4.328125 30.046875 3.578125 
Q 30.765625 2.828125 30.8125 2.09375 
Q 30.8125 0.65625 29.734375 0.328125 
Q 28.65625 0 25.390625 0 
L 23.1875 0 
Q 21.484375 0 20.734375 0.390625 
Q 20 0.78125 20 2.09375 
Q 20.015625 2.8125 20.75 3.53125 
Q 21.484375 4.265625 21.828125 4.890625 
Q 22.1875 5.515625 22.1875 7.203125 
L 22.1875 26.484375 
Q 22.1875 30.21875 21.59375 32.21875 
Q 21 34.234375 18.609375 35.5 
z
" id="JasmineUPC-3634"/>
     <path d="M 20.1875 3.59375 
Q 18.75 1.25 17.640625 0.625 
Q 16.546875 0 14.3125 0 
Q 12.328125 0 11.4375 0.359375 
Q 10.546875 0.734375 9.59375 2.09375 
Q 8.015625 4.5625 6.609375 10.28125 
Q 5.203125 16.015625 5.203125 21.515625 
Q 5.203125 28.90625 7.796875 32.90625 
Q 12.359375 40.3125 23.515625 40.3125 
Q 27.078125 40.3125 30.234375 39.53125 
Q 33.40625 38.75 34.6875 37.796875 
Q 38.28125 35.375 39.484375 32.78125 
Q 40.703125 30.203125 40.703125 26.296875 
L 40.703125 7.203125 
Q 40.703125 5.59375 41.0625 4.953125 
Q 41.4375 4.328125 42.15625 3.546875 
Q 42.875 2.78125 42.890625 2.09375 
Q 42.890625 0.65625 41.8125 0.328125 
Q 40.75 0 37.5 0 
L 35.296875 0 
Q 33.59375 0 32.84375 0.390625 
Q 32.109375 0.78125 32.109375 2.09375 
Q 32.125 2.8125 32.859375 3.53125 
Q 33.59375 4.265625 33.9375 4.890625 
Q 34.296875 5.515625 34.296875 7.203125 
L 34.296875 26.296875 
Q 34.296875 35.765625 24 36.015625 
Q 18.265625 36.015625 15.421875 33.1875 
Q 12.59375 30.375 12.109375 25.703125 
Q 12.015625 24.8125 12.015625 22.90625 
Q 12.015625 17.84375 12.96875 12.453125 
Q 13.921875 7.0625 15.09375 5.6875 
Q 15.625 6.546875 16.796875 8.671875 
Q 17.96875 10.796875 19.1875 13.59375 
Q 21.796875 19.40625 21.796875 23.390625 
Q 21.625 24.078125 21.140625 24.4375 
Q 20.65625 24.8125 19.890625 25.078125 
Q 19.125 25.359375 18.8125 25.546875 
Q 18.5 25.734375 18.5 26.203125 
Q 18.5 27.546875 20.6875 28.625 
Q 22.875 29.71875 25 29.71875 
Q 25.515625 29.71875 26.390625 29.5 
Q 28.390625 28.875 28.390625 25.296875 
Q 28.390625 24 28 21.609375 
Q 26.46875 13.921875 20.1875 3.59375 
z
" id="JasmineUPC-3604"/>
     <path d="M 34.296875 50.203125 
Q 34.296875 51.984375 33.703125 52.640625 
Q 33.125 53.296875 31.8125 54.296875 
Q 30.5 55.296875 30.5 56.109375 
Q 30.5625 57.25 32.875 58.625 
Q 35.1875 60.015625 37.3125 60.015625 
Q 40.703125 59.765625 40.703125 48.796875 
L 40.703125 14.109375 
Q 40.703125 6.296875 36.328125 3.046875 
Q 31.953125 -0.203125 24.203125 -0.203125 
Q 19.390625 -0.203125 15.65625 1.203125 
Q 11.9375 2.609375 9.765625 5.875 
Q 7.59375 9.15625 7.59375 14.40625 
L 8.109375 31.8125 
Q 8.109375 32.78125 7.546875 33.34375 
Q 6.984375 33.90625 5.921875 34.4375 
Q 4.859375 34.984375 4.421875 35.359375 
Q 4 35.75 4 36.5 
Q 4.15625 37.859375 6.4375 38.96875 
Q 8.734375 40.09375 10.890625 40.09375 
Q 12.015625 40.09375 12.40625 39.890625 
Q 13.84375 39.28125 14.171875 37.453125 
Q 14.5 35.625 14.5 32.109375 
L 14.109375 13.59375 
Q 14.109375 8.84375 16.78125 6.421875 
Q 19.453125 4 24.296875 4 
Q 30.5 4.078125 32.390625 6.859375 
Q 34.296875 9.640625 34.296875 14.109375 
z
" id="JasmineUPC-3611"/>
     <path d="M -21 54.59375 
Q -17.921875 54.59375 -14.703125 54.390625 
Q -11.9375 54.21875 -11.9375 54.203125 
Q -11.9375 54.203125 -12.015625 54.203125 
L -12.015625 56 
Q -12.015625 56.90625 -12.359375 57.390625 
Q -12.703125 57.890625 -12.703125 58.203125 
Q -12.703125 60.015625 -8.796875 60.015625 
Q -6.890625 60.015625 -5.890625 59.734375 
Q -4.90625 59.46875 -4.90625 58.296875 
Q -4.90625 57.90625 -5.25 57.34375 
Q -5.59375 56.78125 -5.59375 56 
L -5.59375 52.296875 
Q -5.59375 52 -5.390625 50 
Q -5.390625 49.78125 -5.25 49.21875 
Q -5.109375 48.65625 -5.109375 48.390625 
Q -5.109375 47.953125 -5.59375 47.703125 
Q -6.203125 47.703125 -8.265625 48.296875 
Q -10.328125 48.90625 -13.234375 49.359375 
Q -16.15625 49.8125 -20.90625 49.8125 
Q -24.984375 49.8125 -27.6875 49.28125 
Q -30.390625 48.75 -32.640625 48.015625 
Q -34.90625 47.296875 -35.59375 47.296875 
Q -36.109375 47.296875 -36.59375 47.609375 
Q -37.109375 47.96875 -37.109375 49.09375 
Q -37.109375 50.3125 -36.34375 51.546875 
Q -35.578125 52.78125 -34.40625 53.203125 
Q -31.0625 54.59375 -21 54.59375 
z
" id="JasmineUPC-3637"/>
     <path d="M 20.515625 35.796875 
Q 24.75 40.5 30.296875 40.5 
Q 33.125 40.5 35.796875 39.109375 
Q 40.703125 36.453125 40.703125 28.296875 
L 40.703125 7.203125 
Q 40.703125 5.59375 41.0625 4.953125 
Q 41.4375 4.328125 42.15625 3.546875 
Q 42.875 2.78125 42.890625 2.09375 
Q 42.890625 0.65625 41.8125 0.328125 
Q 40.75 0 37.5 0 
L 35.296875 0 
Q 33.59375 0 32.84375 0.390625 
Q 32.109375 0.78125 32.109375 2.09375 
Q 32.125 2.8125 32.859375 3.53125 
Q 33.59375 4.265625 33.9375 4.890625 
Q 34.296875 5.515625 34.296875 7.203125 
L 34.296875 28.296875 
Q 34.296875 34.734375 29.390625 35.296875 
Q 25.859375 35.296875 23.34375 32.984375 
Q 20.828125 30.6875 18.609375 26.90625 
Q 15.96875 22.484375 15.03125 17.796875 
Q 14.109375 13.109375 14.109375 10.015625 
L 14.109375 7.203125 
Q 14.109375 5.671875 14.5 4.96875 
Q 14.890625 4.265625 15.640625 3.515625 
Q 16.390625 2.765625 16.40625 2.09375 
Q 16.40625 0.65625 15.328125 0.328125 
Q 14.265625 0 11.015625 0 
L 8.90625 0 
Q 7.171875 0 6.375 0.40625 
Q 5.59375 0.8125 5.59375 2.09375 
Q 5.671875 2.8125 6.328125 3.5 
Q 6.984375 4.203125 7.328125 4.875 
Q 7.6875 5.5625 7.6875 7.203125 
L 7.6875 32 
Q 7.6875 33.015625 7.15625 33.546875 
Q 6.625 34.078125 5.53125 34.625 
Q 4.4375 35.1875 4.015625 35.5625 
Q 3.59375 35.9375 3.59375 36.6875 
Q 3.765625 38.0625 6.03125 39.1875 
Q 8.296875 40.3125 10.5 40.3125 
Q 11.59375 40.3125 12.015625 40.09375 
Q 13.453125 39.484375 13.78125 37.640625 
Q 14.109375 35.8125 14.109375 32.296875 
L 14.109375 27.90625 
L 13.40625 22.796875 
Q 13.40625 23.53125 15.3125 27.78125 
Q 17.234375 32.03125 20.515625 35.796875 
z
" id="JasmineUPC-3607"/>
    </defs>
    <g transform="translate(99.9725 35.472)scale(0.25 -0.25)">
     <use xlink:href="#JasmineUPC-3626"/>
     <use x="42.993164" xlink:href="#JasmineUPC-3606"/>
     <use x="87.695312" xlink:href="#JasmineUPC-3636"/>
     <use x="87.695312" xlink:href="#JasmineUPC-3605"/>
     <use x="132.983398" xlink:href="#JasmineUPC-3636"/>
     <use x="132.983398" xlink:href="#JasmineUPC-3585"/>
     <use x="177.294922" xlink:href="#JasmineUPC-3634"/>
     <use x="210.791016" xlink:href="#JasmineUPC-3619"/>
     <use x="251.391602" xlink:href="#JasmineUPC-3648"/>
     <use x="269.897461" xlink:href="#JasmineUPC-3585"/>
     <use x="314.208984" xlink:href="#JasmineUPC-3636"/>
     <use x="314.208984" xlink:href="#JasmineUPC-3604"/>
     <use x="359.716797" xlink:href="#JasmineUPC-3629"/>
     <use x="401.611328" xlink:href="#JasmineUPC-3640"/>
     <use x="401.611328" xlink:href="#JasmineUPC-3610"/>
     <use x="448.022461" xlink:href="#JasmineUPC-3633"/>
     <use x="448.022461" xlink:href="#JasmineUPC-3605"/>
     <use x="493.310547" xlink:href="#JasmineUPC-3636"/>
     <use x="493.310547" xlink:href="#JasmineUPC-3648"/>
     <use x="511.816406" xlink:href="#JasmineUPC-3627"/>
     <use x="558.007812" xlink:href="#JasmineUPC-3605"/>
     <use x="603.295898" xlink:href="#JasmineUPC-3640"/>
     <use x="603.295898" xlink:href="#JasmineUPC-3648"/>
     <use x="621.801758" xlink:href="#JasmineUPC-3611"/>
     <use x="668.212891" xlink:href="#JasmineUPC-3619"/>
     <use x="708.813477" xlink:href="#JasmineUPC-3637"/>
     <use x="708.813477" xlink:href="#JasmineUPC-3618"/>
     <use x="752.612305" xlink:href="#JasmineUPC-3610"/>
     <use x="799.023438" xlink:href="#JasmineUPC-3648"/>
     <use x="817.529297" xlink:href="#JasmineUPC-3607"/>
     <use x="863.037109" xlink:href="#JasmineUPC-3637"/>
     <use x="863.037109" xlink:href="#JasmineUPC-3618"/>
     <use x="906.835938" xlink:href="#JasmineUPC-3610"/>
     <use x="953.24707" xlink:href="#JasmineUPC-3607"/>
     <use x="998.754883" xlink:href="#JasmineUPC-3640"/>
     <use x="998.754883" xlink:href="#JasmineUPC-3585"/>
     <use x="1043.066406" xlink:href="#JasmineUPC-3611"/>
     <use x="1089.477539" xlink:href="#JasmineUPC-3637"/>
    </g>
   </g>
   <g id="legend_1">
    <g id="patch_7">
     <path d="M 64.6 122.862625 
L 122.05 122.862625 
Q 124.05 122.862625 124.05 120.862625 
L 124.05 48.472 
Q 124.05 46.472 122.05 46.472 
L 64.6 46.472 
Q 62.6 46.472 62.6 48.472 
L 62.6 120.862625 
Q 62.6 122.862625 64.6 122.862625 
z
" style="fill:#ffffff;opacity:0.8;stroke:#cccccc;stroke-linejoin:miter;"/>
    </g>
    <g id="patch_8">
     <path d="M 66.6 58.070438 
L 86.6 58.070438 
L 86.6 51.070438 
L 66.6 51.070438 
z
" style="fill:#1e90ff;"/>
    </g>
    <g id="text_14">
     <!-- 2014 -->
     <g transform="translate(94.6 58.070438)scale(0.1 -0.1)">
      <use xlink:href="#DejaVuSans-50"/>
      <use x="63.623047" xlink:href="#DejaVuSans-48"/>
      <use x="127.246094" xlink:href="#DejaVuSans-49"/>
      <use x="190.869141" xlink:href="#DejaVuSans-52"/>
     </g>
    </g>
    <g id="patch_9">
     <path d="M 66.6 72.748563 
L 86.6 72.748563 
L 86.6 65.748563 
L 66.6 65.748563 
z
" style="fill:#7cfc00;"/>
    </g>
    <g id="text_15">
     <!-- 2015 -->
     <g transform="translate(94.6 72.748563)scale(0.1 -0.1)">
      <use xlink:href="#DejaVuSans-50"/>
      <use x="63.623047" xlink:href="#DejaVuSans-48"/>
      <use x="127.246094" xlink:href="#DejaVuSans-49"/>
      <use x="190.869141" xlink:href="#DejaVuSans-53"/>
     </g>
    </g>
    <g id="patch_10">
     <path d="M 66.6 87.426688 
L 86.6 87.426688 
L 86.6 80.426688 
L 66.6 80.426688 
z
" style="fill:#ffff00;"/>
    </g>
    <g id="text_16">
     <!-- 2016 -->
     <g transform="translate(94.6 87.426688)scale(0.1 -0.1)">
      <use xlink:href="#DejaVuSans-50"/>
      <use x="63.623047" xlink:href="#DejaVuSans-48"/>
      <use x="127.246094" xlink:href="#DejaVuSans-49"/>
      <use x="190.869141" xlink:href="#DejaVuSans-54"/>
     </g>
    </g>
    <g id="patch_11">
     <path d="M 66.6 102.104813 
L 86.6 102.104813 
L 86.6 95.104813 
L 66.6 95.104813 
z
" style="fill:#ff4500;"/>
    </g>
    <g id="text_17">
     <!-- 2017 -->
     <g transform="translate(94.6 102.104813)scale(0.1 -0.1)">
      <use xlink:href="#DejaVuSans-50"/>
      <use x="63.623047" xlink:href="#DejaVuSans-48"/>
      <use x="127.246094" xlink:href="#DejaVuSans-49"/>
      <use x="190.869141" xlink:href="#DejaVuSans-55"/>
     </g>
    </g>
    <g id="patch_12">
     <path d="M 66.6 116.782938 
L 86.6 116.782938 
L 86.6 109.782938 
L 66.6 109.782938 
z
" style="fill:#ee82ee;"/>
    </g>
    <g id="text_18">
     <!-- 2018 -->
     <g transform="translate(94.6 116.782938)scale(0.1 -0.1)">
      <use xlink:href="#DejaVuSans-50"/>
      <use x="63.623047" xlink:href="#DejaVuSans-48"/>
      <use x="127.246094" xlink:href="#DejaVuSans-49"/>
      <use x="190.869141" xlink:href="#DejaVuSans-56"/>
     </g>
    </g>
   </g>
  </g>
 </g>
</svg>
